<?xml version="1.0" standalone="no"?>
<!DOCTYPE svg PUBLIC "-//W3C//DTD SVG 20010904//EN"
 "http://www.w3.org/TR/2001/REC-SVG-20010904/DTD/svg10.dtd">
<svg version="1.0" xmlns="http://www.w3.org/2000/svg"
 width="95.000000pt" height="87.000000pt" viewBox="0 0 95.000000 87.000000"
 preserveAspectRatio="xMidYMid meet">

<g transform="translate(0.000000,87.000000) scale(0.100000,-0.100000)"
fill="#000000" stroke="none">
<path d="M428 852 c-16 -7 -16 -11 7 -60 19 -41 29 -52 47 -52 20 0 23 5 26
48 2 35 -2 53 -13 62 -13 10 -15 9 -15 -6 -1 -18 -1 -18 -14 -1 -15 19 -14 19
-38 9z"/>
<path d="M215 770 c-3 -5 1 -10 9 -10 9 0 16 -6 16 -13 0 -7 14 -26 30 -42 33
-32 38 -24 14 24 -20 41 -56 62 -69 41z"/>
<path d="M178 753 c7 -3 16 -2 19 1 4 3 -2 6 -13 5 -11 0 -14 -3 -6 -6z"/>
<path d="M798 708 c5 -5 16 -8 23 -6 8 3 3 7 -10 11 -17 4 -21 3 -13 -5z"/>
<path d="M153 703 c-7 -2 -13 -12 -13 -22 0 -23 -50 -99 -70 -104 -11 -4 -10
-5 4 -6 27 -2 86 62 86 93 0 26 0 26 30 11 25 -13 30 -13 30 -1 0 7 -8 16 -17
20 -10 3 -22 8 -28 10 -5 2 -16 2 -22 -1z"/>
<path d="M365 640 c3 -5 8 -10 11 -10 2 0 4 5 4 10 0 6 -5 10 -11 10 -5 0 -7
-4 -4 -10z"/>
<path d="M865 630 c-3 -5 -1 -10 4 -10 6 0 11 5 11 10 0 6 -2 10 -4 10 -3 0
-8 -4 -11 -10z"/>
<path d="M645 560 c-3 -6 1 -7 9 -4 18 7 21 14 7 14 -6 0 -13 -4 -16 -10z"/>
<path d="M340 503 c8 -3 22 -11 30 -17 13 -10 13 -9 1 7 -7 9 -21 17 -30 16
-13 0 -14 -1 -1 -6z"/>
<path d="M898 493 c7 -3 16 -2 19 1 4 3 -2 6 -13 5 -11 0 -14 -3 -6 -6z"/>
<path d="M476 481 c-3 -5 5 -11 19 -13 20 -4 23 -3 14 8 -13 16 -25 18 -33 5z"/>
<path d="M663 483 c9 -2 23 -2 30 0 6 3 -1 5 -18 5 -16 0 -22 -2 -12 -5z"/>
<path d="M360 420 c-9 -6 -10 -10 -3 -10 6 0 15 5 18 10 8 12 4 12 -15 0z"/>
<path d="M355 340 c-3 -5 -2 -10 4 -10 5 0 13 5 16 10 3 6 2 10 -4 10 -5 0
-13 -4 -16 -10z"/>
<path d="M460 314 c-11 -28 -13 -61 -4 -51 7 7 23 77 18 77 -3 0 -9 -12 -14
-26z"/>
<path d="M805 320 c27 -12 43 -12 25 0 -8 5 -22 9 -30 9 -10 0 -8 -3 5 -9z"/>
<path d="M300 300 c0 -5 4 -10 9 -10 6 0 13 5 16 10 3 6 -1 10 -9 10 -9 0 -16
-4 -16 -10z"/>
<path d="M620 275 c0 -9 5 -15 11 -13 6 2 11 8 11 13 0 5 -5 11 -11 13 -6 2
-11 -4 -11 -13z"/>
<path d="M550 247 c0 -16 6 -23 20 -23 11 0 20 2 20 3 0 2 -9 12 -20 23 l-20
20 0 -23z"/>
<path d="M462 230 c-10 -17 -10 -20 3 -20 8 0 15 9 15 20 0 11 -1 20 -3 20 -1
0 -8 -9 -15 -20z"/>
<path d="M785 220 c-16 -7 -17 -9 -3 -9 9 -1 20 4 23 9 7 11 7 11 -20 0z"/>
<path d="M442 163 c-7 -12 -4 -21 12 -34 11 -9 18 -21 14 -25 -4 -4 -14 -1
-23 6 -9 7 -17 11 -19 9 -1 -2 -13 -21 -25 -42 -13 -21 -29 -44 -37 -52 -12
-12 -11 -13 11 -11 14 1 27 5 30 8 3 3 38 4 78 2 40 -1 79 1 87 6 12 8 10 10
-7 10 -17 0 -27 10 -38 36 -8 20 -28 51 -45 70 -25 29 -30 32 -38 17z m-2
-113 c0 -5 -7 -10 -16 -10 -8 0 -12 5 -9 10 3 6 10 10 16 10 5 0 9 -4 9 -10z"/>
</g>
</svg>
